{"accessors" : [{"bufferView" : 0, "byteOffset" : 0, "componentType" : 5123, "count" : 9999, "type" : "SCALAR", "max" : [8118], "min" : [0]}, {"bufferView" : 1, "byteOffset" : 0, "componentType" : 5126, "count" : 8119, "type" : "VEC3", "max" : [10640.359375, 3091.482421875, 17381.326171875], "min" : [931.32080078125, 518.503662109375, 295.6160888671875], "name" : "POSITION"}, {"bufferView" : 1, "byteOffset" : 12, "componentType" : 5126, "count" : 8119, "type" : "VEC3", "max" : [0.9995176792144775, 0.9993499517440796, 0.9998125433921814], "min" : [-0.9999510645866394, -0.9996948838233948, -0.9989137649536133], "name" : "NORMAL"}, {"bufferView" : 1, "byteOffset" : 24, "componentType" : 5126, "count" : 8119, "type" : "VEC2", "max" : [0.9861209988594055, 0.9979940056800842], "min" : [0.004238999914377928, 0.007227003574371338], "name" : "TEXCOORD_0"}, {"bufferView" : 0, "byteOffset" : 20000, "componentType" : 5123, "count" : 9996, "type" : "SCALAR", "max" : [8264], "min" : [0]}, {"bufferView" : 2, "byteOffset" : 0, "componentType" : 5126, "count" : 8265, "type" : "VEC3", "max" : [11570.6015625, 3702.96435546875, 17381.326171875], "min" : [0, 372.151611328125, 0], "name" : "POSITION"}, {"bufferView" : 2, "byteOffset" : 12, "componentType" : 5126, "count" : 8265, "type" : "VEC3", "max" : [0.9996554255485535, 1.0000044107437134, 0.9986717700958252], "min" : [-0.9996553659439087, -0.9989909529685974, -0.9977322220802307], "name" : "NORMAL"}, {"bufferView" : 2, "byteOffset" : 24, "componentType" : 5126, "count" : 8265, "type" : "VEC2", "max" : [0.9944900274276733, 0.9970510005950928], "min" : [0.0011340000201016665, 0.000782012939453125], "name" : "TEXCOORD_0"}, {"bufferView" : 0, "byteOffset" : 39992, "componentType" : 5123, "count" : 8532, "type" : "SCALAR", "max" : [7058], "min" : [0]}, {"bufferView" : 3, "byteOffset" : 0, "componentType" : 5126, "count" : 7059, "type" : "VEC3", "max" : [11497.724609375, 3702.96435546875, 17771.85546875], "min" : [44.98388671875, 0, 0], "name" : "POSITION"}, {"bufferView" : 3, "byteOffset" : 12, "componentType" : 5126, "count" : 7059, "type" : "VEC3", "max" : [0.9992676973342896, 0.9998757839202881, 0.9968312978744507], "min" : [-0.9998033046722412, -0.9999216198921204, -0.9999529719352722], "name" : "NORMAL"}, {"bufferView" : 3, "byteOffset" : 24, "componentType" : 5126, "count" : 7059, "type" : "VEC2", "max" : [0.9915410280227661, 1.0126880407333374], "min" : [0.0024850000627338886, 0.0012689828872680664], "name" : "TEXCOORD_0"}], "asset" : {"generator" : "Aspose.3D 24.1.0", "version" : "2.0"}, "buffers" : [{"uri" : "data:application/octet-stream;base64,", "byteLength" : 969936}], "bufferViews" : [{"buffer" : 0, "byteOffset" : 0, "byteLength" : 57056, "target" : 34963}, {"buffer" : 0, "byteOffset" : 57060, "byteLength" : 319968, "byteStride" : 32, "target" : 34962}, {"buffer" : 0, "byteOffset" : 377032, "byteLength" : 319872, "byteStride" : 32, "target" : 34962}, {"buffer" : 0, "byteOffset" : 696908, "byteLength" : 273024, "byteStride" : 32, "target" : 34962}], "images" : [{"uri" : "data:image/png;base64,"}], "materials" : [{"name" : "Tex_0221_0_dds", "pbrMetallicRoughness" : {"baseColorFactor" : [1, 1, 1, 1], "baseColorTexture" : {"index" : 0, "texCoord" : 0}, "metallicFactor" : 0, "roughnessFactor" : 0.6}, "emissiveFactor" : [0, 0, 0], "alphaMode" : "OPAQUE", "doubleSided" : true}, {"name" : "Tex_0221_0_dds", "pbrMetallicRoughness" : {"baseColorFactor" : [1, 1, 1, 1], "baseColorTexture" : {"index" : 0, "texCoord" : 0}, "metallicFactor" : 0, "roughnessFactor" : 0.6}, "emissiveFactor" : [0, 0, 0], "alphaMode" : "OPAQUE", "doubleSided" : true}, {"name" : "Tex_0221_0_dds", "pbrMetallicRoughness" : {"baseColorFactor" : [1, 1, 1, 1], "baseColorTexture" : {"index" : 0, "texCoord" : 0}, "metallicFactor" : 0, "roughnessFactor" : 0.6}, "emissiveFactor" : [0, 0, 0], "alphaMode" : "OPAQUE", "doubleSided" : true}], "meshes" : [{"primitives" : [{"attributes" : {"POSITION" : 1, "NORMAL" : 2, "TEXCOORD_0" : 3}, "indices" : 0, "material" : 0, "mode" : 4}]}, {"primitives" : [{"attributes" : {"POSITION" : 5, "NORMAL" : 6, "TEXCOORD_0" : 7}, "indices" : 4, "material" : 1, "mode" : 4}]}, {"primitives" : [{"attributes" : {"POSITION" : 9, "NORMAL" : 10, "TEXCOORD_0" : 11}, "indices" : 8, "material" : 2, "mode" : 4}]}], "nodes" : [{"mesh" : 0, "name" : "Object_3"}, {"mesh" : 1, "name" : "Object_4"}, {"mesh" : 2, "name" : "Object_5"}, {"children" : [0, 1, 2], "name" : "Object_2"}, {"children" : [3], "matrix" : [1, 0, 0, 0, 0, 1, 0, 0, 0, 0, 1, 0, -5785.2998046875, -1621.2205810546875, 33.46714401245117, 1], "name" : "skfb_offset"}, {"children" : [4], "matrix" : [1, 0, 0, 0, 0, 2.220446049250313E-16, -1, 0, 0, 1, 2.220446049250313E-16, 0, 0, 0, 0, 1], "name" : "Sketchfab_model"}], "samplers" : [{"magFilter" : 9729, "minFilter" : 9987, "wrapS" : 10497, "wrapT" : 10497}], "scene" : 0, "scenes" : [{"nodes" : [5]}], "textures" : [{"sampler" : 0, "source" : 0, "name" : ""}]}